<?xml version="1.0" encoding="UTF-8"?>
<svg xmlns="http://www.w3.org/2000/svg" width="89" height="26" viewBox="0 0 89 26" fill="none">
  <path fill-rule="evenodd" clip-rule="evenodd" d="M78.4916 0.416504C72.0496 0.416504 68.3735 4.14716 68.3735 8.67973C68.3735 13.1774 72.0496 16.943 78.4916 16.943C84.9336 16.943 88.6098 13.1774 88.6098 8.67973C88.5748 4.14716 84.8986 0.416504 78.4916 0.416504ZM78.4916 14.5372C75.2356 14.5372 73.135 11.8525 73.135 8.67973C73.135 5.47206 75.2356 2.82225 78.4916 2.82225C81.7477 2.82225 83.8483 5.47206 83.8483 8.67973C83.8133 11.8525 81.7126 14.5372 78.4916 14.5372ZM1.25757 0.730297H19.1481V4.63528C17.8878 3.55444 15.1919 3.13605 12.321 3.13605V13.7702C12.321 15.3391 12.4611 15.7924 13.0562 16.5943H7.34947C7.97966 15.7924 8.0847 15.3391 8.0847 13.7702V3.13605C5.2138 3.13605 2.51796 3.55444 1.25757 4.63528V0.730297ZM27.7258 14.1885C29.5464 14.1885 32.6273 13.7702 33.8177 12.6893V16.5943H20.7937C21.4239 15.8621 21.5289 15.3391 21.5289 13.8399V3.51957C21.5289 1.98547 21.4239 1.49735 20.7937 0.765163H33.1525V4.67015C31.9271 3.5893 28.8812 3.13605 27.0256 3.13605H25.5902V7.35482H26.6405C27.6908 7.35482 29.3013 7.31996 30.3516 6.93643V10.0744C29.3013 9.69084 27.6908 9.65598 26.6405 9.65598H25.5902V14.2234L27.7258 14.1885ZM44.8111 6.83183C47.9271 7.25023 50.4829 8.36594 50.4829 11.7131C50.4829 15.6878 46.7367 16.943 42.6755 16.9081C39.8396 16.8732 37.4238 16.6292 35.6733 15.897V12.3755C38.1941 14.0142 40.7849 14.5372 42.6755 14.5372C44.6361 14.5372 46.4566 14.0491 46.4566 12.5498C46.4566 11.0506 44.7761 10.702 41.3451 10.179C38.3691 9.72571 35.6733 8.47053 35.6733 5.5418C35.6383 1.60195 39.3844 0.416504 42.9556 0.416504C45.2663 0.416504 47.507 0.695431 49.5726 1.35788V5.19314C47.8571 3.65904 45.3013 2.82225 42.7805 2.82225C41.065 2.82225 39.4545 3.38011 39.4545 4.63528C39.4545 6.20425 41.8352 6.44831 44.8111 6.83183ZM62.4916 0.416504C64.3472 0.416504 65.9577 0.6257 67.2531 0.974359V4.91421C65.9927 3.62417 64.4873 2.82225 62.5267 2.82225C58.9205 2.82225 56.5398 5.3326 56.5398 8.67973C56.5398 12.0269 58.9555 14.5372 62.5617 14.5372C64.5223 14.5372 66.0277 13.7353 67.2881 12.4452V16.3851C65.9927 16.7338 64.3822 16.9778 62.5267 16.9778C56.2947 16.9778 51.7783 13.8748 51.7783 8.67973C51.7433 3.48471 56.2597 0.416504 62.4916 0.416504Z" fill="#5C6773"></path>
  <path d="M88.3998 20.9176H77.6164C75.8659 20.9176 74.4654 21.9984 73.8002 22.8004C73.8002 22.8004 72.1197 24.5437 70.9993 25.1712L70.9643 25.2061L70.9293 25.241L70.9643 25.3107H81.2575C83.2532 25.3107 84.1985 24.5437 85.4589 23.3582C85.4589 23.3582 87.1394 21.6149 88.3998 21.0571H88.4348L88.4698 21.0222V20.9176H88.3998Z" fill="#5C6773"></path>
  <path d="M70.7893 20.9176H60.0059C58.2554 20.9176 56.8549 21.9984 56.1897 22.8004C56.1897 22.8004 54.5092 24.5437 53.3889 25.1712L53.3539 25.2061L53.3188 25.241L53.3539 25.3107H63.6471C65.6427 25.3107 66.588 24.5437 67.8484 23.3582C67.8484 23.3582 69.5289 21.6149 70.7893 21.0571H70.8243L70.8593 21.0222V20.9176H70.7893Z" fill="#5C6773"></path>
  <path d="M53.2137 20.9176H42.4304C40.6798 20.9176 39.2794 21.9984 38.6142 22.8004C38.6142 22.8004 36.9337 24.5437 35.8133 25.1712L35.7783 25.2061L35.7433 25.241L35.7783 25.3107H46.0365C48.0321 25.3107 48.9774 24.5437 50.2378 23.3582C50.2378 23.3582 51.9183 21.6149 53.1787 21.0571H53.2137L53.2487 21.0222V20.9176H53.2137Z" fill="#5C6773"></path>
  <path d="M35.6033 20.9176H24.8199C23.0694 20.9176 21.6689 21.9984 21.0037 22.8004C21.0037 22.8004 19.3232 24.5437 18.2028 25.1712L18.1678 25.2061L18.1328 25.241L18.1678 25.3107H28.461C30.4567 25.3107 31.4019 24.5437 32.6623 23.3582C32.6623 23.3582 34.3429 21.6149 35.6033 21.0571H35.6383L35.6733 21.0222V20.9176H35.6033Z" fill="#5C6773"></path>
  <path d="M18.0278 20.9176H7.20942C5.45888 20.9176 4.05844 21.9984 3.39323 22.8004C3.39323 22.8004 1.71271 24.5437 0.592361 25.1712L0.55735 25.2061L0.522339 25.241L0.55735 25.3107H10.8506C12.8462 25.3107 13.7915 24.5437 15.0519 23.3582C15.0519 23.3582 16.7324 21.6149 17.9928 21.0571H18.0278L18.0628 21.0222L18.0278 20.9176Z" fill="#5C6773"></path>
</svg>
