<?xml version="1.0" encoding="UTF-8"?>
<svg xmlns="http://www.w3.org/2000/svg" width="138" height="48" viewBox="0 0 138 48" fill="none">
  <path d="M21.4266 13.6345H27.5395C27.3737 12.9484 26.972 12.3418 26.4041 11.9198C25.8362 11.4979 25.138 11.2872 24.4305 11.3244C23.7366 11.2941 23.0543 11.5094 22.5044 11.9322C21.9546 12.3551 21.5728 12.9581 21.4266 13.6345ZM32.6357 15.1285C32.6338 15.5866 32.5987 16.0439 32.5306 16.497H21.3552C21.6913 18.2211 22.792 19.1125 24.4305 19.1125C24.97 19.141 25.5073 19.0252 25.9867 18.7772C26.4661 18.5293 26.8702 18.1581 27.1572 17.7022H32.3206C31.2619 21.1296 28.2117 23.2723 24.4305 23.2723C19.7293 23.2723 16.2422 19.8491 16.2422 15.2582C16.2422 10.6674 19.6999 7.27344 24.4305 7.27344C29.2872 7.27344 32.6525 10.726 32.6525 15.1285H32.6357Z" fill="white"></path>
  <path d="M60.4128 18.1246C60.8448 18.1344 61.2741 18.0553 61.6739 17.8921C62.0737 17.729 62.4353 17.4855 62.7363 17.1767C63.0372 16.8679 63.2709 16.5006 63.4227 16.0977C63.5745 15.6948 63.6411 15.265 63.6184 14.8352C63.6341 14.4054 63.5625 13.9767 63.4082 13.575C63.2538 13.1733 63.0197 12.8067 62.7199 12.497C62.4201 12.1874 62.0607 11.9412 61.6633 11.773C61.2658 11.6048 60.8384 11.5181 60.4065 11.5181C59.9747 11.5181 59.5473 11.6048 59.1498 11.773C58.7524 11.9412 58.393 12.1874 58.0932 12.497C57.7934 12.8067 57.5593 13.1733 57.4049 13.575C57.2506 13.9767 57.179 14.4054 57.1947 14.8352C57.1719 15.2661 57.2389 15.6969 57.3915 16.1007C57.544 16.5045 57.7788 16.8724 58.0811 17.1814C58.3834 17.4904 58.7466 17.7337 59.1479 17.896C59.5492 18.0583 59.9799 18.1361 60.4128 18.1246ZM68.4835 7.76276V21.1084C68.4835 25.829 65.383 28.75 60.4002 28.75C56.1233 28.75 53.132 26.6032 52.4178 23.046H57.4257C57.787 24.0504 59.0726 24.5902 60.333 24.5902C62.0724 24.5902 63.4714 23.4896 63.4714 21.7026V21.2549C62.2949 21.9953 60.9306 22.3859 59.539 22.3806C55.2158 22.3806 52.0061 19.1792 52.0061 14.8478C51.982 13.8545 52.1602 12.8667 52.5299 11.9439C52.8996 11.021 53.4531 10.1824 54.157 9.47845C54.861 8.77452 55.7007 8.21992 56.6257 7.84809C57.5507 7.47626 58.5417 7.29491 59.539 7.31498C61.2807 7.30736 62.9672 7.92376 64.2907 9.05171L64.9503 7.79624L68.4835 7.76276Z" fill="white"></path>
  <path d="M74.9383 13.6345H81.0302C80.866 12.9483 80.4653 12.3413 79.898 11.9192C79.3306 11.4971 78.6326 11.2866 77.9254 11.3244C77.2343 11.2981 76.556 11.5153 76.0097 11.9378C75.4634 12.3603 75.084 12.961 74.9383 13.6345ZM86.1474 15.1285C86.1441 15.5867 86.1076 16.044 86.0382 16.497H74.8459C75.1862 18.2211 76.2827 19.1125 77.9254 19.1125C78.467 19.1437 79.0071 19.0293 79.489 18.7811C79.971 18.533 80.377 18.1603 80.6647 17.7022H85.8323C84.7736 21.1296 81.7234 23.2723 77.9423 23.2723C73.2368 23.2723 69.7539 19.8491 69.7539 15.2582C69.7539 10.6674 73.2116 7.27344 77.9423 7.27344C82.799 7.27344 86.1642 10.726 86.1642 15.1285H86.1474Z" fill="white"></path>
  <path d="M112.074 18.627C113.965 18.627 115.322 17.2585 115.322 15.2791C115.322 13.2996 113.965 11.9312 112.074 11.9312C110.184 11.9312 108.822 13.2996 108.822 15.2791C108.822 17.2585 110.179 18.627 112.074 18.627ZM103.621 15.2791C103.621 10.6255 107.159 7.28174 112.074 7.28174C116.99 7.28174 120.523 10.6297 120.523 15.2791C120.523 19.9285 116.969 23.2806 112.074 23.2806C107.18 23.2806 103.621 19.9327 103.621 15.2791Z" fill="white"></path>
  <path d="M129.916 18.1246C130.348 18.1344 130.777 18.0553 131.177 17.8921C131.577 17.729 131.938 17.4855 132.239 17.1767C132.54 16.8679 132.774 16.5006 132.926 16.0977C133.077 15.6948 133.144 15.265 133.121 14.8352C133.137 14.4054 133.066 13.9767 132.911 13.575C132.757 13.1733 132.523 12.8067 132.223 12.497C131.923 12.1874 131.564 11.9412 131.166 11.773C130.769 11.6048 130.341 11.5181 129.91 11.5181C129.478 11.5181 129.05 11.6048 128.653 11.773C128.255 11.9412 127.896 12.1874 127.596 12.497C127.296 12.8067 127.062 13.1733 126.908 13.575C126.754 13.9767 126.682 14.4054 126.698 14.8352C126.675 15.2661 126.742 15.6969 126.894 16.1007C127.047 16.5045 127.282 16.8724 127.584 17.1814C127.886 17.4904 128.25 17.7337 128.651 17.896C129.052 18.0583 129.483 18.1361 129.916 18.1246ZM137.974 7.76276V21.1084C137.974 25.829 134.873 28.75 129.895 28.75C125.618 28.75 122.627 26.6032 121.933 23.046H126.941C127.298 24.0504 128.588 24.5902 129.849 24.5902C131.588 24.5902 132.987 23.4896 132.987 21.7026V21.2549C131.811 21.9953 130.446 22.3859 129.055 22.3806C124.731 22.3806 121.522 19.1792 121.522 14.8478C121.498 13.8545 121.676 12.8667 122.046 11.9439C122.415 11.021 122.969 10.1824 123.673 9.47845C124.377 8.77452 125.216 8.21992 126.141 7.84809C127.066 7.47626 128.057 7.29491 129.055 7.31498C130.796 7.30736 132.483 7.92376 133.806 9.05171L134.466 7.79624L137.974 7.76276Z" fill="white"></path>
  <path d="M9.21346 7.31946C7.74891 7.32762 6.33084 7.83241 5.19281 8.75069V0.0209961L0 1.75354V22.7785H5.19281V14.7602C5.19281 12.8351 6.17172 11.722 7.743 11.722C9.09582 11.722 9.70921 12.605 9.70921 14.3375V22.7785H14.8978V13.7391C14.8978 9.84713 12.6753 7.31946 9.21346 7.31946Z" fill="white"></path>
  <path d="M42.5487 18.7065C42.0983 18.7119 41.6515 18.6261 41.2354 18.4542C40.8194 18.2823 40.4427 18.028 40.1284 17.7067C39.814 17.3853 39.5685 17.0037 39.4068 16.5849C39.2451 16.1662 39.1705 15.719 39.1876 15.2707C39.1876 14.3794 39.5431 13.5247 40.1758 12.8945C40.8085 12.2643 41.6665 11.9102 42.5613 11.9102C43.456 11.9102 44.3141 12.2643 44.9468 12.8945C45.5795 13.5247 45.9349 14.3794 45.9349 15.2707C45.9521 15.719 45.8775 16.1662 45.7158 16.5849C45.5541 17.0037 45.3086 17.3853 44.9942 17.7067C44.6799 18.028 44.3032 18.2823 43.8872 18.4542C43.4711 18.6261 43.0243 18.7119 42.5739 18.7065H42.5487ZM45.624 1.75347V8.31539C44.4983 7.62349 43.1993 7.26229 41.8765 7.27335C37.2551 7.27335 33.957 10.6213 33.957 15.2707C33.957 19.9201 37.2551 23.2848 41.8765 23.2848C43.5381 23.3004 45.1511 22.7263 46.4265 21.6652L46.9138 22.7784H50.758V0L45.624 1.75347Z" fill="white"></path>
  <path d="M96.6305 7.31946C95.1646 7.327 93.745 7.83181 92.6057 8.75069V0.0209961L87.4297 1.75354V22.7785H92.6225V14.7602C92.6225 12.8351 93.6014 11.722 95.1727 11.722C96.5255 11.722 97.1389 12.605 97.1389 14.3375V22.7785H102.332V13.7391C102.332 9.84713 100.105 7.31946 96.6473 7.31946" fill="white"></path>
  <path d="M18.4464 39.7565C18.4307 39.0979 18.2203 38.4586 17.8415 37.9186C17.4628 37.3786 16.9326 36.9619 16.3172 36.7207C15.7018 36.4794 15.0287 36.4244 14.3821 36.5624C13.7354 36.7004 13.144 37.0254 12.6819 37.4966C12.2198 37.9678 11.9076 38.5644 11.7842 39.2115C11.6609 39.8587 11.7319 40.5277 11.9885 41.1349C12.2451 41.742 12.6757 42.2602 13.2266 42.6247C13.7775 42.9892 14.424 43.1837 15.0853 43.1839C15.5353 43.1905 15.982 43.1057 16.398 42.9348C16.814 42.7638 17.1908 42.5103 17.5052 42.1896C17.8197 41.8689 18.0653 41.4878 18.2271 41.0695C18.3889 40.6512 18.4635 40.2044 18.4464 39.7565ZM23.3829 32.2237V47.2349H19.3707L18.9253 46.1761C17.6367 47.208 16.0286 47.7627 14.3753 47.7454C9.75388 47.7454 6.47266 44.3975 6.47266 39.7272C6.47266 35.0568 9.76648 31.7759 14.3753 31.7759C16.0578 31.7563 17.6937 32.3266 18.9967 33.3871L19.5261 32.2278L23.3829 32.2237Z" fill="#0B151F"></path>
  <path d="M5.19281 24.4482H0V47.281H5.19281V24.4482Z" fill="#0B151F"></path>
  <path d="M33.1334 43.1922C32.4523 43.2055 31.7826 43.0164 31.2099 42.6489C30.6371 42.2815 30.1873 41.7524 29.9177 41.1293C29.6481 40.5061 29.5711 39.817 29.6963 39.15C29.8216 38.483 30.1436 37.8683 30.6211 37.3843C31.0986 36.9003 31.71 36.5691 32.3774 36.4327C33.0447 36.2964 33.7377 36.3612 34.3679 36.6189C34.9981 36.8765 35.537 37.3154 35.9157 37.8794C36.2945 38.4435 36.4959 39.1071 36.4944 39.7857C36.5099 40.2322 36.4339 40.6772 36.2713 41.0936C36.1086 41.51 35.8625 41.8891 35.5481 42.2077C35.2337 42.5264 34.8575 42.778 34.4424 42.9473C34.0272 43.1165 33.5819 43.1998 33.1334 43.1922ZM33.8266 31.8051C32.5045 31.7946 31.206 32.1542 30.079 32.8429V24.4731L24.9492 26.1597V47.2892H28.7892L29.2808 46.176C30.557 47.2313 32.168 47.8008 33.8266 47.783C38.448 47.783 41.746 44.4602 41.746 39.794C41.746 35.1279 38.469 31.8051 33.8266 31.8051Z" fill="#0B151F"></path>
</svg>
